<svg width="11" height="17" viewBox="0 0 11 17" fill="none" xmlns="http://www.w3.org/2000/svg">
<g id="fa:dollar" clip-path="url(#clip0_233_219)">
<path id="Vector" d="M10.691 11.2416C10.691 12.2093 10.3109 13.0425 9.55088 13.7414C8.79081 14.4402 7.80348 14.8718 6.5889 15.0363V16.6964C6.5889 16.785 6.55452 16.8577 6.48577 16.9146C6.41702 16.9715 6.32918 17 6.22223 17H4.67536C4.57605 17 4.49011 16.97 4.41755 16.9099C4.34498 16.8498 4.30869 16.7786 4.30869 16.6964V15.0363C3.80452 14.9794 3.31755 14.8813 2.84775 14.7422C2.37796 14.6031 1.99029 14.4623 1.68473 14.32C1.37918 14.1777 1.09654 14.0259 0.836816 13.8647C0.577094 13.7034 0.39949 13.5848 0.304004 13.5089C0.208518 13.433 0.141678 13.3761 0.103483 13.3382C-0.026378 13.2054 -0.0340169 13.0757 0.0805664 12.9492L1.26077 11.6685C1.31425 11.6053 1.40209 11.5673 1.52432 11.5547C1.6389 11.542 1.73057 11.5705 1.79932 11.6401L1.82223 11.659C2.68543 12.2852 3.61355 12.6804 4.60661 12.8449C4.88925 12.8955 5.17189 12.9208 5.45452 12.9208C6.07327 12.9208 6.61755 12.7848 7.08734 12.5128C7.55713 12.2409 7.79202 11.8551 7.79202 11.3555C7.79202 11.1784 7.73473 11.0108 7.62015 10.8527C7.50557 10.6946 7.37761 10.5618 7.2363 10.4542C7.09498 10.3467 6.87154 10.2281 6.56598 10.0985C6.26043 9.96884 6.00834 9.86765 5.80973 9.79492C5.61112 9.72219 5.30557 9.61942 4.89307 9.48661C4.59515 9.38542 4.36025 9.30636 4.18838 9.24944C4.0165 9.19252 3.78161 9.10872 3.48369 8.99805C3.18577 8.88737 2.94706 8.78934 2.76755 8.70396C2.58803 8.61858 2.37223 8.50632 2.12015 8.36719C1.86807 8.22805 1.66373 8.09366 1.50713 7.96401C1.35053 7.83436 1.18439 7.67941 1.00869 7.49916C0.832997 7.31892 0.697407 7.13551 0.601921 6.94894C0.506434 6.76237 0.426226 6.55208 0.361296 6.31808C0.296365 6.08408 0.2639 5.83743 0.2639 5.57812C0.2639 4.70536 0.638205 3.9401 1.38682 3.28237C2.13543 2.62463 3.10939 2.20089 4.30869 2.01116V0.303571C4.30869 0.221354 4.34498 0.150205 4.41755 0.0901228C4.49011 0.0300409 4.57605 0 4.67536 0H6.22223C6.32918 0 6.41702 0.0284598 6.48577 0.0853795C6.55452 0.142299 6.5889 0.21503 6.5889 0.303571V1.97321C7.02432 2.01116 7.44636 2.08389 7.85505 2.19141C8.26373 2.29892 8.59602 2.40486 8.85192 2.50921C9.10782 2.61356 9.35036 2.73214 9.57952 2.86496C9.80869 2.99777 9.95765 3.08947 10.0264 3.14007C10.0951 3.19066 10.1524 3.23493 10.1983 3.27288C10.3281 3.38672 10.3472 3.50688 10.2556 3.63337L9.32744 5.01842C9.26633 5.11328 9.17848 5.16388 9.0639 5.1702C8.95695 5.18917 8.85383 5.16704 8.75452 5.10379C8.73161 5.08482 8.67623 5.04688 8.58838 4.98996C8.50053 4.93304 8.35157 4.84924 8.1415 4.73856C7.93143 4.62788 7.708 4.52669 7.47119 4.43499C7.23439 4.34329 6.94984 4.26107 6.61755 4.18834C6.28525 4.11561 5.95869 4.07924 5.63786 4.07924C4.91216 4.07924 4.32015 4.21522 3.86182 4.48717C3.40348 4.75911 3.17432 5.11012 3.17432 5.54018C3.17432 5.70461 3.20678 5.8564 3.27171 5.99554C3.33664 6.13467 3.44932 6.2659 3.60973 6.38923C3.77015 6.51256 3.92102 6.61691 4.06234 6.70229C4.20366 6.78767 4.41755 6.8857 4.704 6.99637C4.99046 7.10705 5.22154 7.19243 5.39723 7.25251C5.57293 7.31259 5.84029 7.39955 6.19932 7.51339C6.60418 7.63988 6.91355 7.73949 7.12744 7.81222C7.34133 7.88495 7.63161 7.99563 7.99827 8.14425C8.36494 8.29288 8.65331 8.42727 8.86338 8.54743C9.07345 8.6676 9.31025 8.82571 9.5738 9.02176C9.83734 9.21782 10.0398 9.41862 10.1811 9.62416C10.3224 9.82971 10.4427 10.0716 10.542 10.3499C10.6413 10.6282 10.691 10.9254 10.691 11.2416Z" fill="#FDFFF7"/>
</g>
<defs>
<clipPath id="clip0_233_219">
<rect width="11" height="17" fill="white"/>
</clipPath>
</defs>
</svg>
